<svg width="32" height="17" viewBox="0 0 32 17" fill="none" xmlns="http://www.w3.org/2000/svg">
<path d="M31.5302 11.5303C31.8231 11.2374 31.8231 10.7626 31.5302 10.4697L26.7573 5.6967C26.4644 5.4038 25.9895 5.4038 25.6966 5.6967C25.4037 5.98959 25.4037 6.46447 25.6966 6.75736L29.9393 11L25.6966 15.2426C25.4037 15.5355 25.4037 16.0104 25.6966 16.3033C25.9895 16.5962 26.4644 16.5962 26.7573 16.3033L31.5302 11.5303ZM14.3333 11.75L30.9999 11.75L30.9999 10.25L14.3333 10.25L14.3333 11.75Z" fill="white"/>
<path d="M0.469751 5.46967C0.176859 5.76256 0.176859 6.23744 0.469751 6.53033L5.24272 11.3033C5.53562 11.5962 6.01049 11.5962 6.30338 11.3033C6.59628 11.0104 6.59628 10.5355 6.30338 10.2426L2.06074 6L6.30338 1.75736C6.59628 1.46447 6.59628 0.989592 6.30338 0.696698C6.01049 0.403805 5.53562 0.403805 5.24272 0.696698L0.469751 5.46967ZM17.6667 5.25L1.00008 5.25L1.00008 6.75L17.6667 6.75L17.6667 5.25Z" fill="white"/>
</svg>
