<svg width="31" height="15" viewBox="0 0 31 15" fill="none" xmlns="http://www.w3.org/2000/svg">
<path d="M29.8693 8.20165C30.3083 7.81414 30.3868 7.18586 30.0447 6.79835L24.4701 0.483536C24.128 0.0960273 23.4949 0.0960273 23.0559 0.483536C22.617 0.871045 22.5384 1.49932 22.8805 1.88683L27.8357 7.5L21.4772 13.1132C21.0383 13.5007 20.9597 14.129 21.3018 14.5165C21.6439 14.904 22.2771 14.904 22.716 14.5165L29.8693 8.20165ZM13.4116 8.49228L29.1259 8.49228L29.374 6.50772L13.6597 6.50772L13.4116 8.49228Z" fill="black"/>
<path d="M1.04289 6.79289C0.652369 7.18342 0.652369 7.81658 1.04289 8.20711L7.40685 14.5711C7.79738 14.9616 8.43054 14.9616 8.82107 14.5711C9.21159 14.1805 9.21159 13.5474 8.82107 13.1569L3.16421 7.5L8.82107 1.84315C9.21159 1.45262 9.21159 0.819457 8.82107 0.428932C8.43054 0.0384078 7.79738 0.0384078 7.40685 0.428932L1.04289 6.79289ZM15.5 6.5H1.75L1.75 8.5H15.5L15.5 6.5Z" fill="black"/>
</svg>
