<svg width="30" height="30" viewBox="0 0 30 30" fill="none" xmlns="http://www.w3.org/2000/svg">
<g clip-path="url(#clip0)">
<path fill-rule="evenodd" clip-rule="evenodd" d="M29.9706 8.82008C29.9004 7.22607 29.6426 6.1302 29.2733 5.18061C28.8924 4.17264 28.3064 3.27022 27.5385 2.52002C26.7883 1.75816 25.88 1.16615 24.8837 0.79117C23.9286 0.421912 22.8384 0.16414 21.2444 0.0938599C19.6385 0.0176273 19.1287 0 15.0556 0C10.9826 0 10.4728 0.0176273 8.8728 0.0879078C7.27879 0.158188 6.18292 0.416188 5.23356 0.785218C4.22537 1.16615 3.32295 1.7522 2.57275 2.52002C1.81089 3.27022 1.21911 4.1786 0.843903 5.17488C0.474645 6.1302 0.216874 7.22011 0.146594 8.81413C0.0703617 10.42 0.0527344 10.9299 0.0527344 15.0029C0.0527344 19.076 0.0703617 19.5858 0.140642 21.1858C0.210922 22.7798 0.468922 23.8757 0.83818 24.8253C1.21911 25.8332 1.81089 26.7356 2.57275 27.4858C3.32295 28.2477 4.23132 28.8397 5.22761 29.2147C6.18292 29.584 7.27284 29.8417 8.86708 29.912C10.4668 29.9825 10.9769 29.9999 15.0499 29.9999C19.123 29.9999 19.6328 29.9825 21.2328 29.912C22.8268 29.8417 23.9226 29.584 24.872 29.2147C26.8882 28.4352 28.4822 26.8412 29.2617 24.8253C29.6307 23.8699 29.8887 22.7798 29.959 21.1858C30.0292 19.5858 30.0469 19.076 30.0469 15.0029C30.0469 10.9299 30.0409 10.4201 29.9706 8.82008ZM15.0557 8.29639C10.8011 8.29639 7.34909 11.7481 7.34909 16.003C7.34909 20.2578 10.8011 23.7096 15.0557 23.7096C19.3105 23.7096 22.7622 20.2578 22.7622 16.003C22.7622 11.7481 19.3105 8.29639 15.0557 8.29639ZM15.0557 21.002C12.2955 21.002 10.0566 18.7634 10.0566 16.003C10.0566 13.2426 12.2955 11.0039 15.0557 11.0039C17.816 11.0039 20.0547 13.2426 20.0547 16.003C20.0547 18.7634 17.816 21.002 15.0557 21.002ZM23.067 8.79078C24.0607 8.79078 24.8663 7.98519 24.8663 6.99164C24.8663 5.99787 24.0607 5.1925 23.067 5.1925C22.0734 5.1925 21.2678 5.99787 21.2678 6.99164C21.2678 7.98519 22.0734 8.79078 23.067 8.79078Z" fill="white"/>
</g>
<defs>
<clipPath id="clip0">
<rect width="30" height="30" fill="white"/>
</clipPath>
</defs>
</svg>
