<svg width="182" height="143" viewBox="0 0 182 143" fill="none" xmlns="http://www.w3.org/2000/svg">
<g filter="url(#filter0_f)">
<path d="M90.1842 30.6346C55.9637 30.6346 39.2401 29.9106 34.0422 29.1346C33.5779 29.0653 33.1234 29.2997 32.9455 29.7342C28.9157 39.5776 24.7209 63.3951 38.1925 85.9064C55.4666 114.772 105.644 126.318 135.257 96.6279C158.501 73.3231 154.082 42.8198 148.727 29.7343C148.549 29.2979 148.096 29.0654 147.629 29.1335C142.313 29.9099 124.421 30.6346 90.1842 30.6346Z" fill="#FF00E5"/>
<path d="M90.1842 30.6346C55.9637 30.6346 39.2401 29.9106 34.0422 29.1346C33.5779 29.0653 33.1234 29.2997 32.9455 29.7342C28.9157 39.5776 24.7209 63.3951 38.1925 85.9064C55.4666 114.772 105.644 126.318 135.257 96.6279C158.501 73.3231 154.082 42.8198 148.727 29.7343C148.549 29.2979 148.096 29.0654 147.629 29.1335C142.313 29.9099 124.421 30.6346 90.1842 30.6346Z" fill="url(#paint0_linear)"/>
</g>
<defs>
<filter id="filter0_f" x="0" y="0.121826" width="182" height="142.878" filterUnits="userSpaceOnUse" color-interpolation-filters="sRGB">
<feFlood flood-opacity="0" result="BackgroundImageFix"/>
<feBlend mode="normal" in="SourceGraphic" in2="BackgroundImageFix" result="shape"/>
<feGaussianBlur stdDeviation="14.5" result="effect1_foregroundBlur"/>
</filter>
<linearGradient id="paint0_linear" x1="31.4474" y1="29" x2="153.148" y2="113.788" gradientUnits="userSpaceOnUse">
<stop stop-color="white"/>
<stop offset="1" stop-color="white" stop-opacity="0"/>
</linearGradient>
</defs>
</svg>
