<svg width="34" height="34" viewBox="0 0 34 34" fill="none" xmlns="http://www.w3.org/2000/svg">
<g clip-path="url(#clip0)">
<path d="M32.1213 0.000976562H1.87651C0.840847 0.000976562 0 0.840158 0 1.87752V32.1228C0 33.1601 0.840847 34.0004 1.87651 34.0004H18.1594V20.8338H13.729V15.7019H18.1594V11.9175C18.1594 7.52674 20.8404 5.13459 24.758 5.13459C26.6362 5.13459 28.2468 5.27511 28.7164 5.33613V9.9256L25.9991 9.92672C23.869 9.92672 23.4581 10.9394 23.4581 12.4247V15.7002H28.5401L27.8756 20.8316H23.4575V33.9987H32.1207C33.1575 33.9987 33.9989 33.1573 33.9989 32.1228V1.8764C33.9983 0.840158 33.158 0.000976562 32.1213 0.000976562Z" fill="white"/>
</g>
<defs>
<clipPath id="clip0">
<rect width="34" height="34" fill="white"/>
</clipPath>
</defs>
</svg>
