<svg width="35" height="35" viewBox="0 0 35 35" fill="none" xmlns="http://www.w3.org/2000/svg">
<g clip-path="url(#clip0)">
<path fill-rule="evenodd" clip-rule="evenodd" d="M34.9658 10.2901C34.8838 8.43041 34.583 7.15189 34.1522 6.04404C33.7078 4.86808 33.0241 3.81525 32.1283 2.94003C31.2531 2.05118 30.1933 1.36051 29.031 0.923032C27.9167 0.49223 26.6449 0.191497 24.7852 0.109503C22.9116 0.0205652 22.3168 0 17.5649 0C12.813 0 12.2182 0.0205652 10.3516 0.102559C8.49192 0.184553 7.21341 0.485553 6.10582 0.916088C4.9296 1.36051 3.87677 2.04424 3.00155 2.94003C2.1127 3.81525 1.4223 4.87503 0.984554 6.03737C0.553753 7.15189 0.25302 8.42347 0.171026 10.2832C0.0820886 12.1567 0.0615234 12.7515 0.0615234 17.5034C0.0615234 22.2553 0.0820886 22.8501 0.164082 24.7167C0.246076 26.5764 0.547076 27.8549 0.977877 28.9628C1.4223 30.1388 2.1127 31.1916 3.00155 32.0668C3.87677 32.9557 4.93655 33.6463 6.09888 34.0838C7.21341 34.5146 8.48498 34.8153 10.3449 34.8973C12.2113 34.9796 12.8063 34.9999 17.5582 34.9999C22.3101 34.9999 22.9049 34.9796 24.7716 34.8973C26.6312 34.8153 27.9097 34.5146 29.0173 34.0838C31.3695 33.1744 33.2292 31.3147 34.1386 28.9628C34.5691 27.8483 34.8701 26.5764 34.9521 24.7167C35.0341 22.8501 35.0547 22.2553 35.0547 17.5034C35.0547 12.7515 35.0477 12.1567 34.9658 10.2901ZM17.5649 9.67912C12.6012 9.67912 8.57394 13.7062 8.57394 18.6701C8.57394 23.6341 12.6012 27.6611 17.5649 27.6611C22.5289 27.6611 26.5559 23.6341 26.5559 18.6701C26.5559 13.7062 22.5289 9.67912 17.5649 9.67912ZM17.5649 24.5024C14.3447 24.5024 11.7327 21.8906 11.7327 18.6701C11.7327 15.4497 14.3447 12.8379 17.5649 12.8379C20.7854 12.8379 23.3972 15.4497 23.3972 18.6701C23.3972 21.8906 20.7854 24.5024 17.5649 24.5024ZM26.9115 10.2559C28.0709 10.2559 29.0107 9.31603 29.0107 8.1569C29.0107 6.9975 28.0709 6.0579 26.9115 6.0579C25.7523 6.0579 24.8125 6.9975 24.8125 8.1569C24.8125 9.31603 25.7523 10.2559 26.9115 10.2559Z" fill="white"/>
</g>
<defs>
<clipPath id="clip0">
<rect width="35" height="35" fill="white"/>
</clipPath>
</defs>
</svg>
