<svg width="31" height="35" viewBox="0 0 31 35" fill="none" xmlns="http://www.w3.org/2000/svg">
<path d="M29.7616 17.7196C29.3999 16.1482 28.1146 14.9891 26.5676 14.8166C22.905 14.4074 19.196 14.4055 15.5052 14.4074C11.8129 14.4055 8.10474 14.4074 4.44096 14.8166C2.89471 14.9895 1.61015 16.1486 1.24886 17.7196C0.733959 19.9571 0.727783 22.3997 0.727783 24.7036C0.727783 27.0076 0.727783 29.4497 1.24269 31.6872C1.60397 33.2582 2.88853 34.4173 4.43556 34.5902C8.09856 34.9998 11.8067 35.0013 15.4987 34.9998C19.191 35.0017 22.8984 34.9998 26.5626 34.5902C28.1088 34.4173 29.3941 33.2582 29.7554 31.6872C30.27 29.4497 30.2727 27.0076 30.2727 24.7036C30.2723 22.3993 30.2761 19.9571 29.7616 17.7196ZM9.155 19.4538H7.01664V30.8165H5.03036V19.4538H2.93099V17.5926H9.155V19.4538ZM14.5499 30.8168H12.7632V29.7419C12.0534 30.5555 11.3794 30.9523 10.7229 30.9523C10.1474 30.9523 9.75135 30.7192 9.57264 30.2201C9.47537 29.9221 9.41516 29.4505 9.41516 28.7549V20.9634H11.2003V28.218C11.2003 28.6364 11.2003 28.8537 11.2166 28.9124C11.2594 29.1895 11.3949 29.33 11.6342 29.33C11.9924 29.33 12.3668 29.054 12.7628 28.494V20.9634H14.5495L14.5499 30.8168ZM21.3328 27.8594C21.3328 28.7707 21.2715 29.4273 21.1522 29.8449C20.9137 30.5779 20.4362 30.9523 19.726 30.9523C19.0907 30.9523 18.4777 30.5995 17.8806 29.8623V30.8172H16.0954V17.5926H17.8806V21.9114C18.4573 21.2016 19.0694 20.8426 19.726 20.8426C20.4362 20.8426 20.914 21.2166 21.1522 21.9542C21.2722 22.3506 21.3328 23.0022 21.3328 23.9351V27.8594ZM28.071 26.2155H24.5002V27.9621C24.5002 28.8742 24.7986 29.3296 25.4123 29.3296C25.852 29.3296 26.1079 29.0907 26.2098 28.6136C26.2264 28.5168 26.2499 28.12 26.2499 27.404H28.0714V27.6645C28.0714 28.24 28.0494 28.6364 28.0332 28.8147C27.9733 29.21 27.8328 29.5686 27.6163 29.8843C27.1219 30.5999 26.3893 30.9527 25.4567 30.9527C24.5226 30.9527 23.8116 30.6165 23.2956 29.9437C22.9169 29.4505 22.7224 28.6739 22.7224 27.6267V24.1756C22.7224 23.1222 22.8949 22.3518 23.2744 21.8539C23.79 21.1796 24.5006 20.8438 25.4127 20.8438C26.3086 20.8438 27.0188 21.1796 27.519 21.8539C27.8931 22.3518 28.0718 23.1222 28.0718 24.1756V26.2155H28.071Z" fill="white"/>
<path d="M25.3966 22.4502C24.7999 22.4502 24.5007 22.906 24.5007 23.817V24.7287H26.2859V23.817C26.2855 22.906 25.9872 22.4502 25.3966 22.4502Z" fill="white"/>
<path d="M18.7706 22.4502C18.4765 22.4502 18.1785 22.5891 17.8801 22.8844V28.89C18.1781 29.1887 18.4765 29.33 18.7706 29.33C19.2855 29.33 19.5472 28.89 19.5472 28.0003V23.7946C19.5472 22.906 19.2855 22.4502 18.7706 22.4502Z" fill="white"/>
<path d="M19.7679 13.499C20.426 13.499 21.1108 13.0991 21.8291 12.2762V13.3623H23.6336V3.4043H21.8291V11.0152C21.4292 11.5802 21.0502 11.8597 20.6893 11.8597C20.4477 11.8597 20.3056 11.7169 20.2663 11.437C20.2442 11.378 20.2442 11.1584 20.2442 10.7357V3.4043H18.4456V11.2784C18.4456 11.9817 18.5058 12.4576 18.6054 12.759C18.7868 13.2635 19.187 13.499 19.7679 13.499Z" fill="white"/>
<path d="M7.20605 7.95053V13.3624H9.207V7.95053L11.614 0H9.59067L8.22544 5.24747L6.80501 0H4.69946C5.12134 1.23863 5.56021 2.48343 5.98209 3.72322C6.62399 5.58675 7.02464 6.99174 7.20605 7.95053Z" fill="white"/>
<path d="M14.296 13.4988C15.2 13.4988 15.9025 13.1587 16.4008 12.4794C16.7794 11.9811 16.9608 11.196 16.9608 10.1376V6.65064C16.9608 5.58609 16.7798 4.80795 16.4008 4.30501C15.9025 3.62374 15.2004 3.28369 14.296 3.28369C13.3966 3.28369 12.6945 3.62374 12.1951 4.30501C11.8118 4.80795 11.6304 5.58609 11.6304 6.65064V10.1376C11.6304 11.196 11.8118 11.9811 12.1951 12.4794C12.6941 13.1587 13.3966 13.4988 14.296 13.4988ZM13.4349 6.28897C13.4349 5.36763 13.7143 4.9083 14.296 4.9083C14.8777 4.9083 15.1563 5.36724 15.1563 6.28897V10.4777C15.1563 11.399 14.8777 11.8599 14.296 11.8599C13.7143 11.8599 13.4349 11.399 13.4349 10.4777V6.28897Z" fill="white"/>
</svg>
